<svg version="1.1" id="svg1" width="2982.6667" height="2982.6667" viewBox="0 0 2982.6667 2982.6667" sodipodi:docname="vecteezy_linkedin-logo-vector-linkedin-symbol-linkedin-icon-free_18910721.eps" xmlns:inkscape="http://www.inkscape.org/namespaces/inkscape" xmlns:sodipodi="http://sodipodi.sourceforge.net/DTD/sodipodi-0.dtd" xmlns="http://www.w3.org/2000/svg" xmlns:svg="http://www.w3.org/2000/svg">
  <defs id="defs1"></defs>
  <sodipodi:namedview id="namedview1" pagecolor="#ffffff" bordercolor="#000000" borderopacity="0.25" inkscape:showpageshadow="2" inkscape:pageopacity="0.0" inkscape:pagecheckerboard="0" inkscape:deskcolor="#d1d1d1">
    <inkscape:page x="0" y="0" inkscape:label="1" id="page1" width="2982.6667" height="2982.6667" margin="0" bleed="0"></inkscape:page>
  </sodipodi:namedview>
  <g id="g1" inkscape:groupmode="layer" inkscape:label="1">
    <g id="group-R5">
      
      <path id="path3" d="m 17895,7880 c 0,-73.5 -2.2,-232.9 -6.6,-356 -10.9,-301.2 -34.7,-689.9 -70.9,-867.1 -54.3,-266.1 -136.2,-517.3 -243,-726.4 -126.4,-247.3 -287.6,-468.9 -479.1,-660.1 -191.2,-190.8 -412.5,-351.4 -659.5,-477.3 -210.2,-107.1 -463,-189.1 -730.6,-243.1 -175.4,-35.4 -561.1,-58.9 -860.5,-69.5 -123.2,-4.4 -282.7,-6.6 -355.8,-6.6 l -6608.86,1 c -73.51,0 -232.87,2.3 -355.95,6.7 -301.25,10.9 -689.96,34.7 -867.04,70.8 -266.16,54.3 -517.38,136.2 -726.49,243 -247.35,126.5 -468.85,287.7 -660.09,479.2 -190.82,191.2 -351.4,412.5 -477.27,659.5 -107.18,210.2 -189.14,463 -243.2,730.6 -35.34,175.3 -58.8,561.1 -69.43,860.4 -4.39,123.3 -6.61,282.7 -6.61,355.9 l 1.07,6608.8 c 0,73.5 2.21,232.9 6.65,356 10.79,301.3 34.68,690 70.76,867.1 54.27,266.1 136.24,517.3 243.07,726.4 126.35,247.4 287.62,468.9 479.13,660.1 191.19,190.9 412.54,351.4 659.47,477.4 210.22,107.1 463.02,189 730.65,243 175.34,35.4 561.14,58.9 860.49,69.5 123.24,4.4 282.61,6.6 355.79,6.6 l 6608.86,-1 c 73.5,0 232.9,-2.3 356,-6.7 301.2,-10.8 689.9,-34.7 867.1,-70.8 266.1,-54.3 517.3,-136.2 726.4,-243 247.3,-126.4 468.8,-287.6 660.1,-479.2 190.8,-191.1 351.4,-412.5 477.3,-659.5 107.1,-210.1 189.1,-462.9 243.1,-730.6 35.4,-175.4 58.8,-561.1 69.5,-860.5 4.4,-123.2 6.6,-282.6 6.6,-355.8 L 17895,7880" style="fill: rgb(0, 102, 200); fill-opacity: 1; fill-rule: evenodd; opacity: 1;" transform="matrix(0.13333333,0,0,-0.13333333,0,2982.6667)" data-index="1"></path>
      <path id="path4" d="m 7152.24,14274.7 c 0,526.4 426.76,953.2 953.22,953.2 526.37,0 953.08,-426.8 953.08,-953.2 0,-526.4 -426.71,-953.2 -953.08,-953.2 -526.46,0 -953.22,426.8 -953.22,953.2" style="fill:#ffffff;fill-opacity:1;fill-rule:evenodd;stroke:none" transform="matrix(0.13333333,0,0,-0.13333333,0,2982.6667)" data-index="2"></path>
      <path id="path5" d="M 8936.42,7142.2 H 7274.41 v 5376.9 H 8936.42 V 7142.2" style="fill:#ffffff;fill-opacity:1;fill-rule:evenodd;stroke:none" transform="matrix(0.13333333,0,0,-0.13333333,0,2982.6667)" data-index="3"></path>
      <path id="path6" d="m 15013.6,11455.4 c -113.5,245.9 -236.9,481.1 -452.7,655.1 -210.1,169.8 -455.7,328.6 -715.9,408.5 -295.1,90.4 -514,108.6 -821.8,95.5 -610.7,-25.4 -1287.1,-375.5 -1630.7,-877.4 V 12519 H 9864.95 V 7142.1 h 1621.45 v 2885.6 c 0,30.5 7.7,518 366.5,841.6 445.2,401.2 1739.3,423.9 1739.3,-802.4 l -4.1,-2924.8 h 1629.4 v 3470.7 c 0,287.9 -84.2,583.6 -203.9,842.6" style="fill:#ffffff;fill-opacity:1;fill-rule:evenodd;stroke:none" transform="matrix(0.13333333,0,0,-0.13333333,0,2982.6667)" data-index="4"></path>
    </g>
  </g>
</svg>