{
  "asset": {
    "version": "2.0",
    "generator": "THREE.GLTFExporter r179"
  },
  "scenes": [
    {
      "name": "Scene",
      "nodes": [
        0
      ]
    }
  ],
  "scene": 0,
  "nodes": [
    {
      "name": "scene.gltf",
      "children": [
        1
      ]
    },
    {
      "rotation": [
        -0.7071067811865475,
        0,
        0,
        0.7071067811865476
      ],
      "scale": [
        0.0016666667070239782,
        0.0016666667070239782,
        0.0016666667070239782
      ],
      "name": "Sketchfab_model",
      "extras": {
        "name": "Sketchfab_model"
      },
      "children": [
        2
      ]
    },
    {
      "rotation": [
        0.7071067811865475,
        0,
        0,
        0.7071067811865476
      ],
      "name": "dd6ef14ae51b43909b1ee178a049bd4efbx",
      "extras": {
        "name": "dd6ef14ae51b43909b1ee178a049bd4e.fbx"
      },
      "children": [
        3
      ]
    },
    {
      "name": "Object_2",
      "extras": {
        "name": "Object_2"
      },
      "children": [
        4
      ]
    },
    {
      "name": "RootNode",
      "extras": {
        "name": "RootNode"
      },
      "children": [
        5,
        7
      ]
    },
    {
      "rotation": [
        -0.7071068286895752,
        0,
        0,
        0.7071067094802856
      ],
      "translation": [
        0,
        19.43694305419922,
        0
      ],
      "scale": [
        94.09982299804688,
        94.09982299804688,
        94.09982299804688
      ],
      "name": "Power_Cube",
      "extras": {
        "name": "Power Cube"
      },
      "children": [
        6
      ]
    },
    {
      "name": "Power_Cube_Emission_0",
      "extras": {
        "name": "Power Cube_Emission_0"
      },
      "mesh": 0
    },
    {
      "rotation": [
        -0.7071068286895752,
        0,
        0,
        0.7071067094802856
      ],
      "translation": [
        0,
        0.2767927944660187,
        0
      ],
      "scale": [
        100,
        100,
        100
      ],
      "name": "Metal_Shell",
      "extras": {
        "name": "Metal Shell"
      },
      "children": [
        8
      ]
    },
    {
      "name": "0",
      "extras": {
        "name": "0"
      },
      "mesh": 1
    }
  ],
  "bufferViews": [
    {
      "buffer": 0,
      "byteOffset": 0,
      "byteLength": 288,
      "target": 34962,
      "byteStride": 12
    },
    {
      "buffer": 0,
      "byteOffset": 288,
      "byteLength": 288,
      "target": 34962,
      "byteStride": 12
    },
    {
      "buffer": 0,
      "byteOffset": 576,
      "byteLength": 192,
      "target": 34962,
      "byteStride": 8
    },
    {
      "buffer": 0,
      "byteOffset": 768,
      "byteLength": 144,
      "target": 34963
    },
    {
      "buffer": 0,
      "byteOffset": 912,
      "byteLength": 13032,
      "target": 34962,
      "byteStride": 12
    },
    {
      "buffer": 0,
      "byteOffset": 13944,
      "byteLength": 13032,
      "target": 34962,
      "byteStride": 12
    },
    {
      "buffer": 0,
      "byteOffset": 26976,
      "byteLength": 8688,
      "target": 34962,
      "byteStride": 8
    },
    {
      "buffer": 0,
      "byteOffset": 35664,
      "byteLength": 8688,
      "target": 34962,
      "byteStride": 8
    },
    {
      "buffer": 0,
      "byteOffset": 44352,
      "byteLength": 17376,
      "target": 34962,
      "byteStride": 16
    },
    {
      "buffer": 0,
      "byteOffset": 61728,
      "byteLength": 13032,
      "target": 34962,
      "byteStride": 12
    },
    {
      "buffer": 0,
      "byteOffset": 74760,
      "byteLength": 13032,
      "target": 34962,
      "byteStride": 12
    },
    {
      "buffer": 0,
      "byteOffset": 87792,
      "byteLength": 13032,
      "target": 34962,
      "byteStride": 12
    },
    {
      "buffer": 0,
      "byteOffset": 100824,
      "byteLength": 13032,
      "target": 34962,
      "byteStride": 12
    },
    {
      "buffer": 0,
      "byteOffset": 113856,
      "byteLength": 13032,
      "target": 34962,
      "byteStride": 12
    },
    {
      "buffer": 0,
      "byteOffset": 126888,
      "byteLength": 13032,
      "target": 34962,
      "byteStride": 12
    },
    {
      "buffer": 0,
      "byteOffset": 139920,
      "byteLength": 13032,
      "target": 34962,
      "byteStride": 12
    },
    {
      "buffer": 0,
      "byteOffset": 152952,
      "byteLength": 13032,
      "target": 34962,
      "byteStride": 12
    },
    {
      "buffer": 0,
      "byteOffset": 165984,
      "byteLength": 10368,
      "target": 34963
    },
    {
      "buffer": 0,
      "byteOffset": 176352,
      "byteLength": 776
    },
    {
      "buffer": 0,
      "byteOffset": 177128,
      "byteLength": 2328
    },
    {
      "buffer": 0,
      "byteOffset": 179456,
      "byteLength": 4
    },
    {
      "buffer": 0,
      "byteOffset": 179460,
      "byteLength": 12
    },
    {
      "buffer": 0,
      "byteOffset": 179472,
      "byteLength": 496
    },
    {
      "buffer": 0,
      "byteOffset": 179968,
      "byteLength": 1984
    }
  ],
  "buffers": [
    {
      "byteLength": 181952,
      "uri": "data:application/octet-stream;base64,"
    }
  ],
  "accessors": [
    {
      "bufferView": 0,
      "componentType": 5126,
      "count": 24,
      "max": [
        1,
        1,
        1
      ],
      "min": [
        -1,
        -1,
        -1
      ],
      "type": "VEC3"
    },
    {
      "bufferView": 1,
      "componentType": 5126,
      "count": 24,
      "max": [
        2.9069173336029053,
        2.9069173336029053,
        6.017370223999023
      ],
      "min": [
        -2.9069173336029053,
        -2.9069173336029053,
        0.203535795211792
      ],
      "type": "VEC3"
    },
    {
      "bufferView": 2,
      "componentType": 5126,
      "count": 24,
      "max": [
        0.9998002052307129,
        0.9998001456260681
      ],
      "min": [
        0.00019976029579993337,
        0.00019976029579993337
      ],
      "type": "VEC2"
    },
    {
      "bufferView": 3,
      "componentType": 5125,
      "count": 36,
      "max": [
        23
      ],
      "min": [
        0
      ],
      "type": "SCALAR"
    },
    {
      "bufferView": 4,
      "componentType": 5126,
      "count": 1086,
      "max": [
        1,
        1,
        1
      ],
      "min": [
        -1,
        -1,
        -1
      ],
      "type": "VEC3"
    },
    {
      "bufferView": 5,
      "componentType": 5126,
      "count": 1086,
      "max": [
        3.111142873764038,
        3.111142873764038,
        6.221595764160156
      ],
      "min": [
        -3.111142873764038,
        -3.111142873764038,
        -0.0006897449493408203
      ],
      "type": "VEC3"
    },
    {
      "bufferView": 6,
      "componentType": 5126,
      "count": 1086,
      "max": [
        0.9756259322166443,
        0.9992226362228394
      ],
      "min": [
        0.0007773496909067035,
        0.0007773496909067035
      ],
      "type": "VEC2"
    },
    {
      "bufferView": 7,
      "componentType": 5126,
      "count": 1086,
      "max": [
        0.9756259322166443,
        0.9992226362228394
      ],
      "min": [
        0.0007773496909067035,
        0.0007773496909067035
      ],
      "type": "VEC2"
    },
    {
      "bufferView": 8,
      "componentType": 5126,
      "count": 1086,
      "max": [
        1,
        1,
        1,
        1
      ],
      "min": [
        -1,
        -1,
        -1,
        1
      ],
      "type": "VEC4"
    },
    {
      "bufferView": 9,
      "componentType": 5126,
      "count": 1086,
      "max": [
        0.5000000596046448,
        0,
        0
      ],
      "min": [
        -0.5000000596046448,
        0,
        0
      ],
      "type": "VEC3"
    },
    {
      "bufferView": 10,
      "componentType": 5126,
      "count": 1086,
      "max": [
        0.7071070075035095,
        0.7071068286895752,
        0.7071068286895752
      ],
      "min": [
        -0.7071070075035095,
        -0.7071068286895752,
        -0.7071068286895752
      ],
      "type": "VEC3"
    },
    {
      "bufferView": 11,
      "componentType": 5126,
      "count": 1086,
      "max": [
        0,
        0,
        0.5
      ],
      "min": [
        0,
        0,
        -0.5
      ],
      "type": "VEC3"
    },
    {
      "bufferView": 12,
      "componentType": 5126,
      "count": 1086,
      "max": [
        0.7071070075035095,
        0.7071068286895752,
        0.7071068286895752
      ],
      "min": [
        -0.7071070075035095,
        -0.7071068286895752,
        -0.7071068286895752
      ],
      "type": "VEC3"
    },
    {
      "bufferView": 13,
      "componentType": 5126,
      "count": 1086,
      "max": [
        0,
        0.5000000596046448,
        0
      ],
      "min": [
        0,
        -0.5000000596046448,
        0
      ],
      "type": "VEC3"
    },
    {
      "bufferView": 14,
      "componentType": 5126,
      "count": 1086,
      "max": [
        0.7071070075035095,
        0.7071068286895752,
        0.7071068286895752
      ],
      "min": [
        -0.7071070075035095,
        -0.7071068286895752,
        -0.7071068286895752
      ],
      "type": "VEC3"
    },
    {
      "bufferView": 15,
      "componentType": 5126,
      "count": 1086,
      "max": [
        0.5000000596046448,
        0.5000000596046448,
        0.5
      ],
      "min": [
        -0.5000000596046448,
        -0.5000000596046448,
        -0.5
      ],
      "type": "VEC3"
    },
    {
      "bufferView": 16,
      "componentType": 5126,
      "count": 1086,
      "max": [
        0.7071070075035095,
        0.7071068286895752,
        0.7071068286895752
      ],
      "min": [
        -0.7071070075035095,
        -0.7071068286895752,
        -0.7071068286895752
      ],
      "type": "VEC3"
    },
    {
      "bufferView": 17,
      "componentType": 5125,
      "count": 2592,
      "max": [
        1085
      ],
      "min": [
        0
      ],
      "type": "SCALAR"
    },
    {
      "bufferView": 18,
      "componentType": 5126,
      "count": 194,
      "max": [
        10.375
      ],
      "min": [
        0
      ],
      "type": "SCALAR"
    },
    {
      "bufferView": 19,
      "componentType": 5126,
      "count": 194,
      "max": [
        0,
        74.17333221435547,
        0
      ],
      "min": [
        0,
        19.43694305419922,
        0
      ],
      "type": "VEC3"
    },
    {
      "bufferView": 20,
      "componentType": 5126,
      "count": 1,
      "max": [
        0
      ],
      "min": [
        0
      ],
      "type": "SCALAR"
    },
    {
      "bufferView": 21,
      "componentType": 5126,
      "count": 1,
      "max": [
        94.09982299804688,
        94.09982299804688,
        94.09982299804688
      ],
      "min": [
        94.09982299804688,
        94.09982299804688,
        94.09982299804688
      ],
      "type": "VEC3"
    },
    {
      "bufferView": 22,
      "componentType": 5126,
      "count": 124,
      "max": [
        10.399999618530273
      ],
      "min": [
        0
      ],
      "type": "SCALAR"
    },
    {
      "bufferView": 23,
      "componentType": 5126,
      "count": 496,
      "max": [
        1.0491405725479126
      ],
      "min": [
        0
      ],
      "type": "SCALAR"
    }
  ],
  "materials": [
    {
      "pbrMetallicRoughness": {
        "baseColorFactor": [
          0.6583748172725346,
          0.4286904966038916,
          0.038204371589236,
          1
        ],
        "metallicFactor": 0,
        "roughnessFactor": 1
      },
      "emissiveFactor": [
        1,
        0.6795424696265424,
        0
      ],
      "doubleSided": true,
      "name": "Emission"
    },
    {
      "pbrMetallicRoughness": {
        "baseColorFactor": [
          0.010329823026364548,
          0.00972121731707524,
          0.00972121731707524,
          1
        ],
        "metallicFactor": 1,
        "roughnessFactor": 1
      },
      "doubleSided": true,
      "name": "Metal_Shell"
    }
  ],
  "meshes": [
    {
      "primitives": [
        {
          "mode": 4,
          "attributes": {
            "NORMAL": 0,
            "POSITION": 1,
            "TEXCOORD_0": 2
          },
          "indices": 3,
          "material": 0
        }
      ]
    },
    {
      "weights": [
        0,
        0,
        0,
        0
      ],
      "extras": {
        "targetNames": [
          "0",
          "1",
          "2",
          "3"
        ]
      },
      "primitives": [
        {
          "mode": 4,
          "attributes": {
            "NORMAL": 4,
            "POSITION": 5,
            "TEXCOORD_0": 6,
            "TEXCOORD_1": 7,
            "TANGENT": 8
          },
          "targets": [
            {
              "POSITION": 9,
              "NORMAL": 10
            },
            {
              "POSITION": 11,
              "NORMAL": 12
            },
            {
              "POSITION": 13,
              "NORMAL": 14
            },
            {
              "POSITION": 15,
              "NORMAL": 16
            }
          ],
          "indices": 17,
          "material": 1
        }
      ]
    }
  ],
  "animations": [
    {
      "name": "Open",
      "samplers": [
        {
          "input": 18,
          "output": 19,
          "interpolation": "LINEAR"
        },
        {
          "input": 20,
          "output": 21,
          "interpolation": "LINEAR"
        },
        {
          "input": 22,
          "output": 23,
          "interpolation": "LINEAR"
        }
      ],
      "channels": [
        {
          "sampler": 0,
          "target": {
            "node": 7,
            "path": "translation"
          }
        },
        {
          "sampler": 1,
          "target": {
            "node": 7,
            "path": "scale"
          }
        },
        {
          "sampler": 2,
          "target": {
            "node": 8,
            "path": "weights"
          }
        }
      ]
    }
  ]
}